<?xml version="1.0" standalone="no"?>
<!DOCTYPE svg PUBLIC "-//W3C//DTD SVG 20010904//EN"
 "http://www.w3.org/TR/2001/REC-SVG-20010904/DTD/svg10.dtd">
<svg version="1.0" xmlns="http://www.w3.org/2000/svg"
 width="1851.000000pt" height="1522.000000pt" viewBox="0 0 1851.000000 1522.000000"
 preserveAspectRatio="xMidYMid meet">

<g transform="translate(0.000000,1522.000000) scale(0.100000,-0.100000)"
fill="#003876" stroke="none">
<path d="M7670 12490 c-25 -5 -67 -9 -94 -9 -27 -1 -85 -8 -130 -16 -206 -39
-218 -42 -316 -70 -30 -8 -73 -20 -95 -26 -22 -6 -56 -17 -75 -24 -205 -76
-199 -74 -375 -161 -167 -83 -204 -104 -325 -184 -45 -30 -99 -66 -119 -79
-20 -13 -38 -27 -41 -31 -3 -4 -23 -20 -46 -36 -126 -90 -357 -321 -486 -483
-54 -69 -182 -251 -204 -291 -10 -19 -33 -55 -49 -80 -33 -49 -143 -269 -170
-340 -9 -25 -21 -53 -26 -62 -5 -10 -9 -24 -9 -32 0 -7 -7 -27 -15 -42 -8 -16
-15 -37 -15 -46 0 -9 -4 -20 -10 -23 -5 -3 -10 -19 -10 -36 0 -16 -4 -37 -9
-47 -5 -9 -15 -43 -22 -75 -11 -50 -10 -60 2 -68 8 -5 1422 -9 3459 -8 3575 0
3505 -1 3690 37 139 29 407 158 502 242 9 8 48 42 85 75 38 33 91 86 118 118
28 32 62 73 77 90 15 18 44 59 65 92 20 33 39 62 42 65 11 10 86 155 113 220
33 78 38 92 38 108 0 9 7 30 15 46 8 15 15 43 15 60 0 18 5 37 11 43 15 15 16
315 2 363 -6 19 -19 62 -29 95 -17 58 -80 205 -93 215 -4 3 -15 18 -24 33 -64
100 -223 230 -352 287 -27 13 -58 27 -67 31 -10 5 -23 9 -29 9 -6 0 -25 6 -42
14 -18 8 -50 18 -72 22 -55 10 -4829 14 -4885 4z"/>
<path d="M4963 9473 c-22 -4 -23 -9 -23 -90 0 -90 14 -229 32 -323 6 -30 14
-80 19 -110 14 -92 26 -152 44 -210 9 -30 19 -66 22 -80 2 -14 8 -34 12 -45
22 -55 34 -93 38 -118 3 -15 9 -30 14 -33 5 -3 9 -14 9 -25 0 -10 4 -27 10
-37 5 -9 16 -34 25 -54 35 -86 50 -119 107 -233 33 -66 66 -130 72 -142 6 -13
14 -23 19 -23 4 0 7 -5 7 -11 0 -10 98 -169 111 -179 3 -3 18 -25 34 -49 32
-51 22 -39 122 -161 105 -129 200 -231 356 -377 42 -40 80 -73 84 -73 5 0 22
-13 39 -29 32 -30 240 -181 249 -181 3 0 35 -19 72 -43 63 -40 214 -117 343
-175 30 -13 62 -28 70 -32 9 -4 30 -11 48 -14 17 -4 34 -12 37 -17 4 -5 16 -9
29 -9 12 0 26 -3 30 -7 4 -4 28 -13 54 -21 26 -7 63 -17 82 -23 19 -6 53 -14
75 -19 205 -45 286 -57 475 -69 114 -8 5218 -10 5579 -3 l154 3 -7 117 c-9
176 -37 420 -51 441 -4 7 -11 36 -16 64 -4 29 -11 68 -14 87 -4 19 -10 44 -15
55 -5 11 -16 47 -26 80 -31 110 -75 233 -113 318 -11 26 -30 68 -42 95 -44
100 -54 118 -84 167 -17 28 -34 58 -38 68 -9 23 -192 298 -216 323 -10 11 -31
38 -47 60 -82 113 -267 308 -404 425 -41 35 -81 70 -88 77 -7 6 -17 12 -21 12
-4 0 -16 8 -27 18 -24 23 -131 104 -154 117 -10 6 -35 22 -56 36 -97 65 -474
259 -502 259 -7 0 -20 4 -30 10 -18 10 -132 48 -212 70 -25 7 -58 17 -75 22
-33 11 -93 25 -170 37 -85 15 -178 32 -235 44 -41 8 -803 12 -2920 13 -1576 1
-2875 0 -2887 -3z"/>
<path d="M6170 5659 c-36 -5 -90 -13 -120 -18 -30 -6 -71 -13 -90 -16 -19 -4
-44 -10 -55 -15 -11 -4 -45 -16 -75 -24 -30 -9 -64 -21 -75 -26 -11 -4 -45
-19 -75 -33 -30 -14 -62 -28 -70 -31 -8 -4 -24 -12 -35 -19 -158 -94 -147 -88
-191 -122 -159 -123 -326 -286 -383 -375 -9 -14 -26 -36 -38 -50 -13 -14 -23
-28 -23 -31 0 -4 -19 -35 -43 -70 -36 -55 -112 -200 -137 -264 -27 -69 -39
-105 -48 -140 -6 -22 -15 -58 -21 -80 -23 -82 -33 -164 -38 -290 -5 -123 0
-166 29 -280 5 -22 12 -55 15 -73 3 -18 9 -35 14 -38 5 -3 9 -12 9 -20 0 -21
67 -155 114 -227 70 -109 245 -267 351 -317 17 -8 37 -19 45 -25 8 -6 35 -17
60 -24 25 -7 53 -17 63 -22 22 -12 88 -27 182 -42 101 -16 4888 -15 5035 1
134 14 220 29 254 42 15 5 42 10 61 10 19 0 37 5 40 10 3 6 19 10 35 10 16 0
44 6 62 14 18 8 53 19 78 26 25 7 72 22 105 35 33 13 76 28 95 35 104 38 245
104 390 183 67 36 337 215 365 241 11 10 37 31 59 47 153 113 388 341 514 499
42 52 79 97 82 100 20 17 80 99 80 108 0 6 3 12 8 14 4 2 27 35 52 73 25 39
48 72 52 73 5 2 8 8 8 13 0 6 15 33 33 62 19 29 52 89 75 134 23 45 45 90 51
100 13 25 62 134 71 158 4 11 13 34 20 50 32 76 83 223 87 253 3 18 9 35 14
38 5 3 9 16 9 30 0 14 5 34 10 45 12 22 28 90 40 169 4 30 11 65 15 76 5 17 2
23 -17 27 -35 10 -7074 6 -7148 -4z"/>
</g>
</svg>